<?xml version="1.0" encoding="utf-8"?>
<svg xmlns="http://www.w3.org/2000/svg" viewBox="0 0 100 12" preserveAspectRatio="none">
    <title>svg bg</title>
    <desc>SizeMe slider background - black 5 x 5 part grid</desc>
    <defs>
    </defs>

    <style type="text/css">
        <![CDATA[
			line.baseClass {
				stroke: #000000;
				stroke-width: 0.1;
			}
			line.doubleClass {
				stroke: #000000;
				stroke-width: 0.2;
			}			
		]]>
    </style>

    <!-- bottom horizontal line -->
    <line class="doubleClass" x1="0" y1="12" x2="100" y2="12"/>

    <!-- start/end vertical lines -->
    <line class="doubleClass" x1="0" y1="12" x2="0" y2="6"/>
    <line class="doubleClass" x1="100" y1="12" x2="100" y2="6"/>

    <!-- middle high vertical lines -->
    <line class="baseClass" x1="20" y1="12" x2="20" y2="6"/>
    <line class="baseClass" x1="40" y1="12" x2="40" y2="6"/>
    <line class="baseClass" x1="60" y1="12" x2="60" y2="6"/>
    <line class="baseClass" x1="80" y1="12" x2="80" y2="6"/>

    <!-- middle vertical lines -->
    <line class="baseClass" x1="4" y1="12" x2="4" y2="9"/>
    <line class="baseClass" x1="8" y1="12" x2="8" y2="9"/>
    <line class="baseClass" x1="12" y1="12" x2="12" y2="9"/>
    <line class="baseClass" x1="16" y1="12" x2="16" y2="9"/>

    <!-- middle vertical lines -->
    <line class="baseClass" x1="24" y1="12" x2="24" y2="9"/>
    <line class="baseClass" x1="28" y1="12" x2="28" y2="9"/>
    <line class="baseClass" x1="32" y1="12" x2="32" y2="9"/>
    <line class="baseClass" x1="36" y1="12" x2="36" y2="9"/>

    <!-- middle vertical lines -->
    <line class="baseClass" x1="44" y1="12" x2="44" y2="9"/>
    <line class="baseClass" x1="48" y1="12" x2="48" y2="9"/>
    <line class="baseClass" x1="52" y1="12" x2="52" y2="9"/>
    <line class="baseClass" x1="56" y1="12" x2="56" y2="9"/>

    <!-- middle vertical lines -->
    <line class="baseClass" x1="64" y1="12" x2="64" y2="9"/>
    <line class="baseClass" x1="68" y1="12" x2="68" y2="9"/>
    <line class="baseClass" x1="72" y1="12" x2="72" y2="9"/>
    <line class="baseClass" x1="76" y1="12" x2="76" y2="9"/>

    <!-- middle vertical lines -->
    <line class="baseClass" x1="84" y1="12" x2="84" y2="9"/>
    <line class="baseClass" x1="88" y1="12" x2="88" y2="9"/>
    <line class="baseClass" x1="92" y1="12" x2="92" y2="9"/>
    <line class="baseClass" x1="96" y1="12" x2="96" y2="9"/>

</svg>
